<svg width="26" height="25" viewBox="0 0 26 25" fill="none" xmlns="http://www.w3.org/2000/svg">
<path d="M22.9859 0.413818C22.3256 0.413818 21.7435 0.735684 21.373 1.22559H4.30495C3.93438 0.735684 3.35234 0.413818 2.69201 0.413818C1.57297 0.413818 0.662598 1.32424 0.662598 2.44323C0.662598 3.56222 1.57297 4.47264 2.69201 4.47264C3.35239 4.47264 3.93443 4.15078 4.30495 3.66087H4.72137V21.1137C4.72137 21.2768 4.81921 21.4246 4.96975 21.4879L12.6814 24.7345C12.7318 24.7556 12.7854 24.7662 12.8389 24.7662C12.8925 24.7662 12.9461 24.7556 12.9964 24.7345L20.7081 21.4879C20.8587 21.4246 20.9565 21.2768 20.9565 21.1137V3.66087H21.3729C21.7435 4.15078 22.3255 4.47264 22.9858 4.47264C24.1048 4.47264 25.0153 3.56227 25.0153 2.44323C25.0154 1.32424 24.105 0.413818 22.9859 0.413818ZM20.9976 2.84909H20.5507H5.12729H4.68042C4.7072 2.71801 4.72142 2.58202 4.72142 2.44323C4.72142 2.30444 4.7072 2.16845 4.68042 2.03737H20.9976C20.9708 2.16845 20.9566 2.30444 20.9566 2.44323C20.9566 2.58202 20.9707 2.71801 20.9976 2.84909Z" fill="none"/>
</svg>
